<svg width="844px" height="432px"
 viewBox="0.00 0.00 844.00 432.00" xmlns="http://www.w3.org/2000/svg" xmlns:xlink="http://www.w3.org/1999/xlink"><g id="graph0" class="graph" transform=" rotate(0) translate(4 428)">
<polygon fill="white" stroke="transparent" points="-4,4 -4,-428 840,-428 840,4 -4,4"/>
<text text-anchor="middle" x="418" y="-7.8" font-family="Times New Roman,serif" font-size="14.00">ビジネスルール関連図 [2019.12.1]</text>
<g id="clust2" class="cluster">
<title>cluster_warikan.domain.model</title>
<polygon fill="lemonchiffon" stroke="#eedd82" stroke-width="2" points="209,-31 209,-108 352,-108 352,-31 209,-31"/>
<text text-anchor="middle" x="280.5" y="-92.8" font-family="Times New Roman,serif" font-size="14.00">warikan.domain.model</text>
</g>
<g id="clust3" class="cluster">
<title>cluster_warikan.domain.model.party</title>
<polygon fill="lemonchiffon" stroke="#eedd82" stroke-width="2" points="362,-264 362,-416 828,-416 828,-264 362,-264"/>
<text text-anchor="middle" x="595" y="-400.8" font-family="Times New Roman,serif" font-size="14.00">party</text>
</g>
<g id="clust1" class="cluster">
<title>cluster_warikan.domain.model.members</title>
<polygon fill="lemonchiffon" stroke="#eedd82" stroke-width="2" points="8,-116 8,-341 354,-341 354,-116 8,-116"/>
<text text-anchor="middle" x="181" y="-325.8" font-family="Times New Roman,serif" font-size="14.00">members</text>
</g>
<!-- warikan.domain.model.members.Member -->
<g id="node1" class="node">
<title>warikan.domain.model.members.Member</title>
<polygon fill="#eedd82" stroke="black" points="247,-236 179,-236 179,-198 247,-198 247,-236"/>
<text text-anchor="middle" x="213" y="-220.8" font-family="Times New Roman,serif" font-size="14.00">参加者</text>
<text text-anchor="middle" x="213" y="-205.8" font-family="Times New Roman,serif" font-size="14.00">Member</text>
</g>
<!-- warikan.domain.model.members.MemberName -->
<g id="node2" class="node">
<title>warikan.domain.model.members.MemberName</title>
<polygon fill="#eedd82" stroke="black" points="111.5,-162 16.5,-162 16.5,-124 111.5,-124 111.5,-162"/>
<text text-anchor="middle" x="64" y="-146.8" font-family="Times New Roman,serif" font-size="14.00">参加者名</text>
<text text-anchor="middle" x="64" y="-131.8" font-family="Times New Roman,serif" font-size="14.00">MemberName</text>
</g>
<!-- warikan.domain.model.members.Member&#45;&gt;warikan.domain.model.members.MemberName -->
<g id="edge1" class="edge">
<title>warikan.domain.model.members.Member&#45;&gt;warikan.domain.model.members.MemberName</title>
<path fill="none" stroke="black" d="M178.82,-199.48C158.59,-189.71 132.7,-177.2 110.62,-166.53"/>
<polygon fill="black" stroke="black" points="111.95,-163.28 101.42,-162.08 108.9,-169.58 111.95,-163.28"/>
</g>
<!-- warikan.domain.model.members.Payment -->
<g id="node4" class="node">
<title>warikan.domain.model.members.Payment</title>
<polygon fill="#eedd82" stroke="black" points="232.5,-162 129.5,-162 129.5,-124 232.5,-124 232.5,-162"/>
<text text-anchor="middle" x="181" y="-146.8" font-family="Times New Roman,serif" font-size="14.00">支払い金額</text>
<text text-anchor="middle" x="181" y="-131.8" font-family="Times New Roman,serif" font-size="14.00">Payment</text>
</g>
<!-- warikan.domain.model.members.Member&#45;&gt;warikan.domain.model.members.Payment -->
<g id="edge2" class="edge">
<title>warikan.domain.model.members.Member&#45;&gt;warikan.domain.model.members.Payment</title>
<path fill="none" stroke="black" d="M204.93,-197.83C201.39,-189.88 197.16,-180.37 193.25,-171.57"/>
<polygon fill="black" stroke="black" points="196.44,-170.13 189.18,-162.41 190.05,-172.97 196.44,-170.13"/>
</g>
<!-- warikan.domain.model.members.PaymentRatio -->
<g id="node5" class="node">
<title>warikan.domain.model.members.PaymentRatio</title>
<polygon fill="#eedd82" stroke="black" points="345.5,-162 250.5,-162 250.5,-124 345.5,-124 345.5,-162"/>
<text text-anchor="middle" x="298" y="-146.8" font-family="Times New Roman,serif" font-size="14.00">支払区分</text>
<text text-anchor="middle" x="298" y="-131.8" font-family="Times New Roman,serif" font-size="14.00">PaymentRatio</text>
</g>
<!-- warikan.domain.model.members.Member&#45;&gt;warikan.domain.model.members.PaymentRatio -->
<g id="edge3" class="edge">
<title>warikan.domain.model.members.Member&#45;&gt;warikan.domain.model.members.PaymentRatio</title>
<path fill="none" stroke="black" d="M234.45,-197.83C244.82,-189.05 257.42,-178.37 268.66,-168.85"/>
<polygon fill="black" stroke="black" points="271.19,-171.3 276.56,-162.16 266.67,-165.96 271.19,-171.3"/>
</g>
<!-- warikan.domain.model.members.Members -->
<g id="node3" class="node">
<title>warikan.domain.model.members.Members</title>
<polygon fill="#eedd82" stroke="black" points="237.5,-310 82.5,-310 82.5,-272 237.5,-272 237.5,-310"/>
<text text-anchor="middle" x="160" y="-294.8" font-family="Times New Roman,serif" font-size="14.00">メンバーグループ</text>
<text text-anchor="middle" x="160" y="-279.8" font-family="Times New Roman,serif" font-size="14.00">Members</text>
</g>
<!-- warikan.domain.model.members.Members&#45;&gt;warikan.domain.model.members.Member -->
<g id="edge4" class="edge">
<title>warikan.domain.model.members.Members&#45;&gt;warikan.domain.model.members.Member</title>
<path fill="none" stroke="black" d="M173.37,-271.83C179.42,-263.62 186.68,-253.76 193.32,-244.73"/>
<polygon fill="black" stroke="black" points="196.34,-246.54 199.45,-236.41 190.7,-242.39 196.34,-246.54"/>
</g>
<!-- warikan.domain.model.members.Members&#45;&gt;warikan.domain.model.members.Payment -->
<g id="edge5" class="edge">
<title>warikan.domain.model.members.Members&#45;&gt;warikan.domain.model.members.Payment</title>
<path fill="none" stroke="black" d="M161.46,-271.95C163.09,-253.36 166.02,-223.56 170,-198 171.31,-189.62 173.02,-180.58 174.71,-172.33"/>
<polygon fill="black" stroke="black" points="178.17,-172.93 176.81,-162.42 171.32,-171.48 178.17,-172.93"/>
</g>
<!-- warikan.domain.model.members.Members&#45;&gt;warikan.domain.model.members.PaymentRatio -->
<g id="edge6" class="edge">
<title>warikan.domain.model.members.Members&#45;&gt;warikan.domain.model.members.PaymentRatio</title>
<path fill="none" stroke="black" d="M205.14,-271.97C222.75,-263.19 242.02,-251.2 256,-236 272.8,-217.73 283.85,-191.58 290.38,-171.83"/>
<polygon fill="black" stroke="black" points="293.76,-172.75 293.39,-162.16 287.08,-170.67 293.76,-172.75"/>
</g>
<!-- warikan.domain.model.Money -->
<g id="node6" class="node">
<title>warikan.domain.model.Money</title>
<polygon fill="#eedd82" stroke="black" points="308,-77 252,-77 252,-39 308,-39 308,-77"/>
<text text-anchor="middle" x="280" y="-61.8" font-family="Times New Roman,serif" font-size="14.00">通貨</text>
<text text-anchor="middle" x="280" y="-46.8" font-family="Times New Roman,serif" font-size="14.00">Money</text>
</g>
<!-- warikan.domain.model.members.Payment&#45;&gt;warikan.domain.model.Money -->
<g id="edge7" class="edge">
<title>warikan.domain.model.members.Payment&#45;&gt;warikan.domain.model.Money</title>
<path fill="none" stroke="black" d="M202.48,-123.99C216.53,-112.22 235.06,-96.68 250.48,-83.75"/>
<polygon fill="black" stroke="black" points="252.8,-86.37 258.22,-77.26 248.31,-81 252.8,-86.37"/>
</g>
<!-- warikan.domain.model.party.LittleRatio -->
<g id="node7" class="node">
<title>warikan.domain.model.party.LittleRatio</title>
<polygon fill="#eedd82" stroke="black" points="490,-310 370,-310 370,-272 490,-272 490,-310"/>
<text text-anchor="middle" x="430" y="-294.8" font-family="Times New Roman,serif" font-size="14.00">弱者控除割合</text>
<text text-anchor="middle" x="430" y="-279.8" font-family="Times New Roman,serif" font-size="14.00">LittleRatio</text>
</g>
<!-- warikan.domain.model.party.Party -->
<g id="node8" class="node">
<title>warikan.domain.model.party.Party</title>
<polygon fill="#eedd82" stroke="black" points="440,-385 386,-385 386,-349 440,-349 440,-385"/>
<text text-anchor="middle" x="413" y="-363.3" font-family="Times New Roman,serif" font-size="14.00">Party</text>
</g>
<!-- warikan.domain.model.party.Party&#45;&gt;warikan.domain.model.members.Member -->
<g id="edge8" class="edge">
<title>warikan.domain.model.party.Party&#45;&gt;warikan.domain.model.members.Member</title>
<path fill="none" stroke="black" d="M385.96,-366.77C359.16,-366.19 318.15,-361.57 290,-341 258.35,-317.88 268.25,-296.94 247,-264 242.85,-257.57 238.13,-250.85 233.54,-244.59"/>
<polygon fill="black" stroke="black" points="236.23,-242.34 227.45,-236.42 230.62,-246.53 236.23,-242.34"/>
</g>
<!-- warikan.domain.model.party.Party&#45;&gt;warikan.domain.model.members.Members -->
<g id="edge9" class="edge">
<title>warikan.domain.model.party.Party&#45;&gt;warikan.domain.model.members.Members</title>
<path fill="none" stroke="black" d="M385.86,-364.56C353.32,-362.2 297.49,-356.16 252,-341 232.88,-334.63 212.98,-324.52 196.6,-315.14"/>
<polygon fill="black" stroke="black" points="198.29,-312.08 187.89,-310.04 194.75,-318.11 198.29,-312.08"/>
</g>
<!-- warikan.domain.model.party.Party&#45;&gt;warikan.domain.model.members.Payment -->
<g id="edge10" class="edge">
<title>warikan.domain.model.party.Party&#45;&gt;warikan.domain.model.members.Payment</title>
<path fill="none" stroke="black" d="M385.98,-363.96C367.3,-361.29 342.86,-355.13 326,-341 271.77,-295.54 301.64,-252.08 256,-198 246.25,-186.44 233.51,-176.08 221.31,-167.59"/>
<polygon fill="black" stroke="black" points="223.25,-164.68 212.99,-162.02 219.35,-170.49 223.25,-164.68"/>
</g>
<!-- warikan.domain.model.party.Party&#45;&gt;warikan.domain.model.members.PaymentRatio -->
<g id="edge11" class="edge">
<title>warikan.domain.model.party.Party&#45;&gt;warikan.domain.model.members.PaymentRatio</title>
<path fill="none" stroke="black" d="M385.86,-357.95C376.87,-354.09 367.51,-348.61 361,-341 317.87,-290.56 339.09,-260.93 318,-198 315.15,-189.51 311.85,-180.35 308.76,-172.03"/>
<polygon fill="black" stroke="black" points="311.93,-170.52 305.14,-162.39 305.38,-172.98 311.93,-170.52"/>
</g>
<!-- warikan.domain.model.party.Party&#45;&gt;warikan.domain.model.party.LittleRatio -->
<g id="edge12" class="edge">
<title>warikan.domain.model.party.Party&#45;&gt;warikan.domain.model.party.LittleRatio</title>
<path fill="none" stroke="black" d="M416.94,-348.84C418.9,-340.31 421.32,-329.78 423.54,-320.12"/>
<polygon fill="black" stroke="black" points="427.01,-320.63 425.84,-310.1 420.19,-319.06 427.01,-320.63"/>
</g>
<!-- warikan.domain.model.party.PartyDatetime -->
<g id="node9" class="node">
<title>warikan.domain.model.party.PartyDatetime</title>
<polygon fill="#eedd82" stroke="black" points="603.5,-310 508.5,-310 508.5,-272 603.5,-272 603.5,-310"/>
<text text-anchor="middle" x="556" y="-294.8" font-family="Times New Roman,serif" font-size="14.00">請求金額</text>
<text text-anchor="middle" x="556" y="-279.8" font-family="Times New Roman,serif" font-size="14.00">PartyDatetime</text>
</g>
<!-- warikan.domain.model.party.Party&#45;&gt;warikan.domain.model.party.PartyDatetime -->
<g id="edge13" class="edge">
<title>warikan.domain.model.party.Party&#45;&gt;warikan.domain.model.party.PartyDatetime</title>
<path fill="none" stroke="black" d="M440.11,-361.23C457.64,-357.4 480.54,-351 499,-341 510.65,-334.69 522.03,-325.67 531.52,-317.09"/>
<polygon fill="black" stroke="black" points="534.12,-319.45 539.01,-310.05 529.32,-314.35 534.12,-319.45"/>
</g>
<!-- warikan.domain.model.party.PartyName -->
<g id="node10" class="node">
<title>warikan.domain.model.party.PartyName</title>
<polygon fill="#eedd82" stroke="black" points="708,-310 622,-310 622,-272 708,-272 708,-310"/>
<text text-anchor="middle" x="665" y="-294.8" font-family="Times New Roman,serif" font-size="14.00">飲み会名</text>
<text text-anchor="middle" x="665" y="-279.8" font-family="Times New Roman,serif" font-size="14.00">PartyName</text>
</g>
<!-- warikan.domain.model.party.Party&#45;&gt;warikan.domain.model.party.PartyName -->
<g id="edge14" class="edge">
<title>warikan.domain.model.party.Party&#45;&gt;warikan.domain.model.party.PartyName</title>
<path fill="none" stroke="black" d="M440.03,-364.7C487.32,-362.07 582.92,-355.16 613,-341 624.46,-335.61 635.05,-326.72 643.64,-317.99"/>
<polygon fill="black" stroke="black" points="646.4,-320.15 650.65,-310.44 641.28,-315.39 646.4,-320.15"/>
</g>
<!-- warikan.domain.model.party.TotalPayment -->
<g id="node11" class="node">
<title>warikan.domain.model.party.TotalPayment</title>
<polygon fill="#eedd82" stroke="black" points="820,-310 726,-310 726,-272 820,-272 820,-310"/>
<text text-anchor="middle" x="773" y="-294.8" font-family="Times New Roman,serif" font-size="14.00">請求金額</text>
<text text-anchor="middle" x="773" y="-279.8" font-family="Times New Roman,serif" font-size="14.00">TotalPayment</text>
</g>
<!-- warikan.domain.model.party.Party&#45;&gt;warikan.domain.model.party.TotalPayment -->
<g id="edge15" class="edge">
<title>warikan.domain.model.party.Party&#45;&gt;warikan.domain.model.party.TotalPayment</title>
<path fill="none" stroke="black" d="M440.33,-365.92C505.35,-365.4 667.5,-361.95 717,-341 729.58,-335.68 741.32,-326.39 750.77,-317.32"/>
<polygon fill="black" stroke="black" points="753.29,-319.75 757.83,-310.18 748.31,-314.83 753.29,-319.75"/>
</g>
<!-- warikan.domain.model.party.TotalPayment&#45;&gt;warikan.domain.model.Money -->
<g id="edge16" class="edge">
<title>warikan.domain.model.party.TotalPayment&#45;&gt;warikan.domain.model.Money</title>
<path fill="none" stroke="black" d="M734.32,-271.87C641.69,-228.47 408.13,-119.04 317.12,-76.39"/>
<polygon fill="black" stroke="black" points="318.54,-73.19 308,-72.12 315.57,-79.53 318.54,-73.19"/>
</g>
</g>
</svg>
