<svg width="324px" height="251px"
 viewBox="0.00 0.00 323.50 251.00" xmlns="http://www.w3.org/2000/svg" xmlns:xlink="http://www.w3.org/1999/xlink"><g id="graph0" class="graph" transform=" rotate(0) translate(4 247)">
<polygon fill="white" stroke="transparent" points="-4,4 -4,-247 319.5,-247 319.5,4 -4,4"/>
<text text-anchor="middle" x="157.75" y="-7.8" font-family="Times New Roman,serif" font-size="14.00">パッケージ関連図 [2019.12.1]</text>
<g id="clust1" class="cluster">
<title>cluster_warikan.domain.model</title>
<polygon fill="lemonchiffon" stroke="#eedd82" stroke-width="2" points="142,-87 142,-235 285,-235 285,-87 142,-87"/>
<text text-anchor="middle" x="213.5" y="-219.8" font-family="Times New Roman,serif" font-size="14.00">warikan.domain.model</text>
</g>
<!-- summary -->
<g id="node1" class="node">
<title>summary</title>
<polygon fill="none" stroke="black" points="128,-205 0,-205 0,-167 134,-167 134,-199 128,-205"/>
<polyline fill="none" stroke="black" points="128,-205 128,-199 "/>
<polyline fill="none" stroke="black" points="134,-199 128,-199 "/>
<text text-anchor="start" x="8" y="-189.8" font-family="Times New Roman,serif" font-size="14.00">パッケージ数: 3</text>
<text text-anchor="start" x="8" y="-174.8" font-family="Times New Roman,serif" font-size="14.00">関連数: 3</text>
</g>
<!-- warikan.domain.model.members -->
<g id="node2" class="node">
<title>warikan.domain.model.members</title>
<polygon fill="#eedd82" stroke="black" points="247,-131 179,-131 179,-95 247,-95 247,-131"/>
<text text-anchor="middle" x="213" y="-109.3" font-family="Times New Roman,serif" font-size="14.00">members</text>
</g>
<!-- warikan.domain.model -->
<g id="node3" class="node">
<title>warikan.domain.model</title>
<polygon fill="#eedd82" stroke="black" points="315.5,-59 172.5,-59 172.5,-23 315.5,-23 315.5,-59"/>
<text text-anchor="middle" x="244" y="-37.3" font-family="Times New Roman,serif" font-size="14.00">warikan.domain.model</text>
</g>
<!-- warikan.domain.model.members&#45;&gt;warikan.domain.model -->
<g id="edge1" class="edge">
<title>warikan.domain.model.members&#45;&gt;warikan.domain.model</title>
<path fill="none" stroke="black" d="M220.66,-94.7C224.19,-86.73 228.46,-77.1 232.37,-68.26"/>
<polygon fill="black" stroke="black" points="235.58,-69.67 236.43,-59.1 229.18,-66.83 235.58,-69.67"/>
</g>
<!-- warikan.domain.model.party -->
<g id="node4" class="node">
<title>warikan.domain.model.party</title>
<polygon fill="#eedd82" stroke="black" points="258,-204 204,-204 204,-168 258,-168 258,-204"/>
<text text-anchor="middle" x="231" y="-182.3" font-family="Times New Roman,serif" font-size="14.00">party</text>
</g>
<!-- warikan.domain.model.party&#45;&gt;warikan.domain.model.members -->
<g id="edge2" class="edge">
<title>warikan.domain.model.party&#45;&gt;warikan.domain.model.members</title>
<path fill="none" stroke="black" d="M226.64,-167.81C224.59,-159.7 222.09,-149.84 219.79,-140.78"/>
<polygon fill="black" stroke="black" points="223.17,-139.86 217.32,-131.03 216.38,-141.58 223.17,-139.86"/>
</g>
<!-- warikan.domain.model.party&#45;&gt;warikan.domain.model -->
<g id="edge3" class="edge">
<title>warikan.domain.model.party&#45;&gt;warikan.domain.model</title>
<path fill="none" stroke="black" d="M241.37,-167.69C246.91,-157.41 253.16,-143.91 256,-131 260.54,-110.38 256.92,-86.67 252.5,-68.91"/>
<polygon fill="black" stroke="black" points="255.86,-67.94 249.86,-59.21 249.11,-69.78 255.86,-67.94"/>
</g>
</g>
</svg>
