<svg width="910px" height="357px"
 viewBox="0.00 0.00 910.19 357.00" xmlns="http://www.w3.org/2000/svg" xmlns:xlink="http://www.w3.org/1999/xlink"><g id="graph0" class="graph" transform=" rotate(0) translate(4 353)">
<polygon fill="white" stroke="transparent" points="-4,4 -4,-353 906.19,-353 906.19,4 -4,4"/>
<text text-anchor="middle" x="451.1" y="-7.8" font-family="Times New Roman,serif" font-size="14.00">ビジネスルール関連図 [2019.12.1]</text>
<g id="clust2" class="cluster">
<title>cluster_warikan.domain.model</title>
<polygon fill="lemonchiffon" stroke="#eedd82" stroke-width="2" points="282,-31 282,-108 425,-108 425,-31 282,-31"/>
<text text-anchor="middle" x="353.5" y="-92.8" font-family="Times New Roman,serif" font-size="14.00">warikan.domain.model</text>
</g>
<g id="clust1" class="cluster">
<title>cluster_warikan.domain.model.members</title>
<polygon fill="lemonchiffon" stroke="#eedd82" stroke-width="2" points="8,-116 8,-341 408,-341 408,-116 8,-116"/>
<text text-anchor="middle" x="208" y="-325.8" font-family="Times New Roman,serif" font-size="14.00">members</text>
</g>
<g id="clust3" class="cluster">
<title>cluster_warikan.domain.model.party</title>
<polygon fill="lemonchiffon" stroke="#eedd82" stroke-width="2" points="416,-116 416,-341 882,-341 882,-116 416,-116"/>
<text text-anchor="middle" x="649" y="-325.8" font-family="Times New Roman,serif" font-size="14.00">party</text>
</g>
<!-- warikan.domain.model.members.Member -->
<g id="node1" class="node">
<title>warikan.domain.model.members.Member</title>
<polygon fill="#eedd82" stroke="black" points="104,-236 36,-236 36,-198 104,-198 104,-236"/>
<text text-anchor="middle" x="70" y="-220.8" font-family="Times New Roman,serif" font-size="14.00">参加者</text>
<text text-anchor="middle" x="70" y="-205.8" font-family="Times New Roman,serif" font-size="14.00">Member</text>
</g>
<!-- warikan.domain.model.members.MemberName -->
<g id="node2" class="node">
<title>warikan.domain.model.members.MemberName</title>
<polygon fill="#eedd82" stroke="black" points="165.5,-162 70.5,-162 70.5,-124 165.5,-124 165.5,-162"/>
<text text-anchor="middle" x="118" y="-146.8" font-family="Times New Roman,serif" font-size="14.00">参加者名</text>
<text text-anchor="middle" x="118" y="-131.8" font-family="Times New Roman,serif" font-size="14.00">MemberName</text>
</g>
<!-- warikan.domain.model.members.Member&#45;&gt;warikan.domain.model.members.MemberName -->
<g id="edge1" class="edge">
<title>warikan.domain.model.members.Member&#45;&gt;warikan.domain.model.members.MemberName</title>
<path fill="none" stroke="black" d="M82.11,-197.83C87.53,-189.71 94.02,-179.96 99.99,-171.01"/>
<polygon fill="black" stroke="black" points="103.09,-172.68 105.72,-162.41 97.27,-168.79 103.09,-172.68"/>
</g>
<!-- warikan.domain.model.members.Payment -->
<g id="node4" class="node">
<title>warikan.domain.model.members.Payment</title>
<polygon fill="#eedd82" stroke="black" points="286.5,-162 183.5,-162 183.5,-124 286.5,-124 286.5,-162"/>
<text text-anchor="middle" x="235" y="-146.8" font-family="Times New Roman,serif" font-size="14.00">支払い金額</text>
<text text-anchor="middle" x="235" y="-131.8" font-family="Times New Roman,serif" font-size="14.00">Payment</text>
</g>
<!-- warikan.domain.model.members.Member&#45;&gt;warikan.domain.model.members.Payment -->
<g id="edge2" class="edge">
<title>warikan.domain.model.members.Member&#45;&gt;warikan.domain.model.members.Payment</title>
<path fill="none" stroke="black" d="M104.19,-201.08C127.31,-190.99 158.24,-177.49 184.22,-166.16"/>
<polygon fill="black" stroke="black" points="185.78,-169.3 193.55,-162.09 182.98,-162.88 185.78,-169.3"/>
</g>
<!-- warikan.domain.model.members.PaymentRatio -->
<g id="node5" class="node">
<title>warikan.domain.model.members.PaymentRatio</title>
<polygon fill="#eedd82" stroke="black" points="399.5,-162 304.5,-162 304.5,-124 399.5,-124 399.5,-162"/>
<text text-anchor="middle" x="352" y="-146.8" font-family="Times New Roman,serif" font-size="14.00">支払区分</text>
<text text-anchor="middle" x="352" y="-131.8" font-family="Times New Roman,serif" font-size="14.00">PaymentRatio</text>
</g>
<!-- warikan.domain.model.members.Member&#45;&gt;warikan.domain.model.members.PaymentRatio -->
<g id="edge3" class="edge">
<title>warikan.domain.model.members.Member&#45;&gt;warikan.domain.model.members.PaymentRatio</title>
<path fill="none" stroke="black" d="M104.13,-202.45C108.75,-200.84 113.47,-199.3 118,-198 192.14,-176.7 215.47,-181.67 294.31,-162.01"/>
<polygon fill="black" stroke="black" points="295.39,-165.35 304.21,-159.49 293.66,-158.57 295.39,-165.35"/>
</g>
<!-- warikan.domain.model.members.Members -->
<g id="node3" class="node">
<title>warikan.domain.model.members.Members</title>
<polygon fill="#eedd82" stroke="black" points="200.5,-310 45.5,-310 45.5,-272 200.5,-272 200.5,-310"/>
<text text-anchor="middle" x="123" y="-294.8" font-family="Times New Roman,serif" font-size="14.00">メンバーグループ</text>
<text text-anchor="middle" x="123" y="-279.8" font-family="Times New Roman,serif" font-size="14.00">Members</text>
</g>
<!-- warikan.domain.model.members.Members&#45;&gt;warikan.domain.model.members.Member -->
<g id="edge4" class="edge">
<title>warikan.domain.model.members.Members&#45;&gt;warikan.domain.model.members.Member</title>
<path fill="none" stroke="black" d="M109.63,-271.83C103.58,-263.62 96.32,-253.76 89.68,-244.73"/>
<polygon fill="black" stroke="black" points="92.3,-242.39 83.55,-236.41 86.66,-246.54 92.3,-242.39"/>
</g>
<!-- warikan.domain.model.members.Members&#45;&gt;warikan.domain.model.members.Payment -->
<g id="edge5" class="edge">
<title>warikan.domain.model.members.Members&#45;&gt;warikan.domain.model.members.Payment</title>
<path fill="none" stroke="black" d="M68.74,-271.91C52.41,-263.64 36.36,-252.01 27,-236 18.47,-221.42 16.57,-211.29 27,-198 66.66,-147.46 105.41,-176.61 173.64,-161.79"/>
<polygon fill="black" stroke="black" points="174.58,-165.16 183.46,-159.39 172.92,-158.36 174.58,-165.16"/>
</g>
<!-- warikan.domain.model.members.Members&#45;&gt;warikan.domain.model.members.PaymentRatio -->
<g id="edge6" class="edge">
<title>warikan.domain.model.members.Members&#45;&gt;warikan.domain.model.members.PaymentRatio</title>
<path fill="none" stroke="black" d="M119.35,-271.99C116.32,-251.45 115,-218.11 133,-198 180.08,-145.41 220.18,-178.02 294.04,-161.91"/>
<polygon fill="black" stroke="black" points="295.31,-165.2 304.19,-159.43 293.65,-158.4 295.31,-165.2"/>
</g>
<!-- warikan.domain.model.Money -->
<g id="node7" class="node">
<title>warikan.domain.model.Money</title>
<polygon fill="#eedd82" stroke="black" points="381,-77 325,-77 325,-39 381,-39 381,-77"/>
<text text-anchor="middle" x="353" y="-61.8" font-family="Times New Roman,serif" font-size="14.00">通貨</text>
<text text-anchor="middle" x="353" y="-46.8" font-family="Times New Roman,serif" font-size="14.00">Money</text>
</g>
<!-- warikan.domain.model.members.Payment&#45;&gt;warikan.domain.model.Money -->
<g id="edge7" class="edge">
<title>warikan.domain.model.members.Payment&#45;&gt;warikan.domain.model.Money</title>
<path fill="none" stroke="black" d="M260.6,-123.99C277.65,-112 300.24,-96.11 318.82,-83.04"/>
<polygon fill="black" stroke="black" points="320.87,-85.88 327.04,-77.26 316.85,-80.15 320.87,-85.88"/>
</g>
<!-- warikan.domain.model.members.PaymentService -->
<g id="node6" class="node">
<title>warikan.domain.model.members.PaymentService</title>
<polygon fill="#eedd82" stroke="black" points="399.5,-236 142.5,-236 142.5,-198 399.5,-198 399.5,-236"/>
<text text-anchor="middle" x="271" y="-220.8" font-family="Times New Roman,serif" font-size="14.00">支払金額を計算するDomainService</text>
<text text-anchor="middle" x="271" y="-205.8" font-family="Times New Roman,serif" font-size="14.00">PaymentService</text>
</g>
<!-- warikan.domain.model.members.PaymentService&#45;&gt;warikan.domain.model.members.Payment -->
<g id="edge9" class="edge">
<title>warikan.domain.model.members.PaymentService&#45;&gt;warikan.domain.model.members.Payment</title>
<path fill="none" stroke="black" d="M261.92,-197.83C257.94,-189.88 253.18,-180.37 248.79,-171.57"/>
<polygon fill="black" stroke="black" points="251.81,-169.79 244.21,-162.41 245.55,-172.92 251.81,-169.79"/>
</g>
<!-- warikan.domain.model.members.PaymentService&#45;&gt;warikan.domain.model.Money -->
<g id="edge8" class="edge">
<title>warikan.domain.model.members.PaymentService&#45;&gt;warikan.domain.model.Money</title>
<path fill="none" stroke="black" d="M150.07,-197.98C110.26,-189.4 73.05,-177.54 61,-162 48.47,-145.84 48,-131.78 61,-116 92.7,-77.51 242.7,-64.65 314.51,-60.66"/>
<polygon fill="black" stroke="black" points="315.12,-64.13 324.92,-60.11 314.75,-57.14 315.12,-64.13"/>
</g>
<!-- warikan.domain.model.party.LittleRatio -->
<g id="node8" class="node">
<title>warikan.domain.model.party.LittleRatio</title>
<polygon fill="#eedd82" stroke="black" points="656,-162 536,-162 536,-124 656,-124 656,-162"/>
<text text-anchor="middle" x="596" y="-146.8" font-family="Times New Roman,serif" font-size="14.00">弱者控除割合</text>
<text text-anchor="middle" x="596" y="-131.8" font-family="Times New Roman,serif" font-size="14.00">LittleRatio</text>
</g>
<!-- warikan.domain.model.members.PaymentService&#45;&gt;warikan.domain.model.party.LittleRatio -->
<g id="edge10" class="edge">
<title>warikan.domain.model.members.PaymentService&#45;&gt;warikan.domain.model.party.LittleRatio</title>
<path fill="none" stroke="black" d="M361.57,-197.98C408.06,-188.47 465.82,-176.27 525.8,-162.24"/>
<polygon fill="black" stroke="black" points="526.9,-165.57 535.83,-159.88 525.3,-158.76 526.9,-165.57"/>
</g>
<!-- warikan.domain.model.party.TotalPayment -->
<g id="node13" class="node">
<title>warikan.domain.model.party.TotalPayment</title>
<polygon fill="#eedd82" stroke="black" points="518,-162 424,-162 424,-124 518,-124 518,-162"/>
<text text-anchor="middle" x="471" y="-146.8" font-family="Times New Roman,serif" font-size="14.00">請求金額</text>
<text text-anchor="middle" x="471" y="-131.8" font-family="Times New Roman,serif" font-size="14.00">TotalPayment</text>
</g>
<!-- warikan.domain.model.members.PaymentService&#45;&gt;warikan.domain.model.party.TotalPayment -->
<g id="edge11" class="edge">
<title>warikan.domain.model.members.PaymentService&#45;&gt;warikan.domain.model.party.TotalPayment</title>
<path fill="none" stroke="black" d="M321.21,-197.92C349.49,-187.74 384.89,-175 414.18,-164.45"/>
<polygon fill="black" stroke="black" points="415.64,-167.65 423.86,-160.97 413.27,-161.06 415.64,-167.65"/>
</g>
<!-- warikan.domain.model.party.Party -->
<g id="node9" class="node">
<title>warikan.domain.model.party.Party</title>
<polygon fill="#eedd82" stroke="black" points="562,-236 494,-236 494,-198 562,-198 562,-236"/>
<text text-anchor="middle" x="528" y="-220.8" font-family="Times New Roman,serif" font-size="14.00">飲み会</text>
<text text-anchor="middle" x="528" y="-205.8" font-family="Times New Roman,serif" font-size="14.00">Party</text>
</g>
<!-- warikan.domain.model.party.Party&#45;&gt;warikan.domain.model.members.Members -->
<g id="edge12" class="edge">
<title>warikan.domain.model.party.Party&#45;&gt;warikan.domain.model.members.Members</title>
<path fill="none" stroke="black" d="M493.88,-224.06C431.98,-235.07 299.36,-258.65 210.66,-274.42"/>
<polygon fill="black" stroke="black" points="209.84,-271.01 200.61,-276.2 211.07,-277.9 209.84,-271.01"/>
</g>
<!-- warikan.domain.model.party.Party&#45;&gt;warikan.domain.model.members.Payment -->
<g id="edge13" class="edge">
<title>warikan.domain.model.party.Party&#45;&gt;warikan.domain.model.members.Payment</title>
<path fill="none" stroke="black" d="M493.88,-208.8C450.19,-199.44 371.98,-182.15 296.34,-162.29"/>
<polygon fill="black" stroke="black" points="297.21,-158.9 286.65,-159.72 295.42,-165.66 297.21,-158.9"/>
</g>
<!-- warikan.domain.model.party.Party&#45;&gt;warikan.domain.model.members.PaymentRatio -->
<g id="edge14" class="edge">
<title>warikan.domain.model.party.Party&#45;&gt;warikan.domain.model.members.PaymentRatio</title>
<path fill="none" stroke="black" d="M493.65,-201.95C468.66,-191.73 434.35,-177.69 405.75,-165.99"/>
<polygon fill="black" stroke="black" points="406.87,-162.67 396.29,-162.12 404.22,-169.14 406.87,-162.67"/>
</g>
<!-- warikan.domain.model.party.Party&#45;&gt;warikan.domain.model.party.LittleRatio -->
<g id="edge15" class="edge">
<title>warikan.domain.model.party.Party&#45;&gt;warikan.domain.model.party.LittleRatio</title>
<path fill="none" stroke="black" d="M545.16,-197.83C553.15,-189.37 562.8,-179.15 571.54,-169.9"/>
<polygon fill="black" stroke="black" points="574.29,-172.09 578.61,-162.41 569.2,-167.28 574.29,-172.09"/>
</g>
<!-- warikan.domain.model.party.PartyDatetime -->
<g id="node10" class="node">
<title>warikan.domain.model.party.PartyDatetime</title>
<polygon fill="#eedd82" stroke="black" points="873.5,-162 778.5,-162 778.5,-124 873.5,-124 873.5,-162"/>
<text text-anchor="middle" x="826" y="-146.8" font-family="Times New Roman,serif" font-size="14.00">開催日時</text>
<text text-anchor="middle" x="826" y="-131.8" font-family="Times New Roman,serif" font-size="14.00">PartyDatetime</text>
</g>
<!-- warikan.domain.model.party.Party&#45;&gt;warikan.domain.model.party.PartyDatetime -->
<g id="edge16" class="edge">
<title>warikan.domain.model.party.Party&#45;&gt;warikan.domain.model.party.PartyDatetime</title>
<path fill="none" stroke="black" d="M562.15,-209.31C607.22,-200.26 689.2,-183.1 768.53,-162.01"/>
<polygon fill="black" stroke="black" points="769.44,-165.39 778.19,-159.42 767.63,-158.63 769.44,-165.39"/>
</g>
<!-- warikan.domain.model.party.PartyName -->
<g id="node11" class="node">
<title>warikan.domain.model.party.PartyName</title>
<polygon fill="#eedd82" stroke="black" points="760,-162 674,-162 674,-124 760,-124 760,-162"/>
<text text-anchor="middle" x="717" y="-146.8" font-family="Times New Roman,serif" font-size="14.00">飲み会名</text>
<text text-anchor="middle" x="717" y="-131.8" font-family="Times New Roman,serif" font-size="14.00">PartyName</text>
</g>
<!-- warikan.domain.model.party.Party&#45;&gt;warikan.domain.model.party.PartyName -->
<g id="edge17" class="edge">
<title>warikan.domain.model.party.Party&#45;&gt;warikan.domain.model.party.PartyName</title>
<path fill="none" stroke="black" d="M562.23,-202.96C590.69,-192.12 631.68,-176.5 664.32,-164.07"/>
<polygon fill="black" stroke="black" points="665.63,-167.32 673.73,-160.49 663.14,-160.77 665.63,-167.32"/>
</g>
<!-- warikan.domain.model.party.Party&#45;&gt;warikan.domain.model.party.TotalPayment -->
<g id="edge18" class="edge">
<title>warikan.domain.model.party.Party&#45;&gt;warikan.domain.model.party.TotalPayment</title>
<path fill="none" stroke="black" d="M513.62,-197.83C507.05,-189.54 499.15,-179.56 491.94,-170.45"/>
<polygon fill="black" stroke="black" points="494.53,-168.08 485.58,-162.41 489.04,-172.43 494.53,-168.08"/>
</g>
<!-- warikan.domain.model.party.PartyService -->
<g id="node12" class="node">
<title>warikan.domain.model.party.PartyService</title>
<polygon fill="#eedd82" stroke="black" points="617,-310 429,-310 429,-272 617,-272 617,-310"/>
<text text-anchor="middle" x="523" y="-294.8" font-family="Times New Roman,serif" font-size="14.00">割り勘するDomainService</text>
<text text-anchor="middle" x="523" y="-279.8" font-family="Times New Roman,serif" font-size="14.00">PartyService</text>
</g>
<!-- warikan.domain.model.party.PartyService&#45;&gt;warikan.domain.model.members.Members -->
<g id="edge20" class="edge">
<title>warikan.domain.model.party.PartyService&#45;&gt;warikan.domain.model.members.Members</title>
<path fill="none" stroke="black" d="M428.9,-291C356.26,-291 283.62,-291 210.98,-291"/>
<polygon fill="black" stroke="black" points="210.73,-287.5 200.73,-291 210.73,-294.5 210.73,-287.5"/>
</g>
<!-- warikan.domain.model.party.PartyService&#45;&gt;warikan.domain.model.members.Payment -->
<g id="edge21" class="edge">
<title>warikan.domain.model.party.PartyService&#45;&gt;warikan.domain.model.members.Payment</title>
<path fill="none" stroke="black" d="M491.6,-271.82C475.97,-262.1 457.22,-249.4 442,-236 425.21,-221.22 427.73,-210.23 409,-198 406.48,-196.35 345.34,-177.54 296.24,-162.58"/>
<polygon fill="black" stroke="black" points="297.19,-159.21 286.6,-159.65 295.15,-165.91 297.19,-159.21"/>
</g>
<!-- warikan.domain.model.party.PartyService&#45;&gt;warikan.domain.model.members.PaymentRatio -->
<g id="edge22" class="edge">
<title>warikan.domain.model.party.PartyService&#45;&gt;warikan.domain.model.members.PaymentRatio</title>
<path fill="none" stroke="black" d="M509.8,-271.91C494.83,-252.2 468.98,-220.48 442,-198 428.32,-186.6 411.97,-176.04 396.98,-167.33"/>
<polygon fill="black" stroke="black" points="398.29,-164.05 387.86,-162.16 394.83,-170.14 398.29,-164.05"/>
</g>
<!-- warikan.domain.model.party.PartyService&#45;&gt;warikan.domain.model.members.PaymentService -->
<g id="edge23" class="edge">
<title>warikan.domain.model.party.PartyService&#45;&gt;warikan.domain.model.members.PaymentService</title>
<path fill="none" stroke="black" d="M459.74,-271.92C424.54,-261.87 380.57,-249.31 343.93,-238.84"/>
<polygon fill="black" stroke="black" points="344.87,-235.47 334.29,-236.08 342.94,-242.2 344.87,-235.47"/>
</g>
<!-- warikan.domain.model.party.PartyService&#45;&gt;warikan.domain.model.Money -->
<g id="edge19" class="edge">
<title>warikan.domain.model.party.PartyService&#45;&gt;warikan.domain.model.Money</title>
<path fill="none" stroke="black" d="M617.01,-278.35C749.85,-258.28 967.42,-209.99 883,-116 850.2,-79.49 507.85,-64.35 391.47,-60.23"/>
<polygon fill="black" stroke="black" points="391.37,-56.73 381.25,-59.88 391.12,-63.72 391.37,-56.73"/>
</g>
<!-- warikan.domain.model.party.PartyService&#45;&gt;warikan.domain.model.party.LittleRatio -->
<g id="edge24" class="edge">
<title>warikan.domain.model.party.PartyService&#45;&gt;warikan.domain.model.party.LittleRatio</title>
<path fill="none" stroke="black" d="M547.19,-271.96C558.24,-262.46 570.51,-249.9 578,-236 588.56,-216.38 592.98,-191.44 594.8,-172.47"/>
<polygon fill="black" stroke="black" points="598.3,-172.6 595.58,-162.36 591.32,-172.06 598.3,-172.6"/>
</g>
<!-- warikan.domain.model.party.PartyService&#45;&gt;warikan.domain.model.party.Party -->
<g id="edge25" class="edge">
<title>warikan.domain.model.party.PartyService&#45;&gt;warikan.domain.model.party.Party</title>
<path fill="none" stroke="black" d="M524.26,-271.83C524.8,-264.13 525.43,-254.97 526.03,-246.42"/>
<polygon fill="black" stroke="black" points="529.52,-246.63 526.72,-236.41 522.54,-246.15 529.52,-246.63"/>
</g>
<!-- warikan.domain.model.party.PartyService&#45;&gt;warikan.domain.model.party.TotalPayment -->
<g id="edge26" class="edge">
<title>warikan.domain.model.party.PartyService&#45;&gt;warikan.domain.model.party.TotalPayment</title>
<path fill="none" stroke="black" d="M545.22,-271.9C555.13,-262.39 565.74,-249.83 571,-236 577,-220.21 579.65,-212.5 571,-198 565.23,-188.33 544.74,-176.55 523.79,-166.47"/>
<polygon fill="black" stroke="black" points="525.05,-163.19 514.51,-162.11 522.07,-169.53 525.05,-163.19"/>
</g>
<!-- warikan.domain.model.party.TotalPayment&#45;&gt;warikan.domain.model.Money -->
<g id="edge27" class="edge">
<title>warikan.domain.model.party.TotalPayment&#45;&gt;warikan.domain.model.Money</title>
<path fill="none" stroke="black" d="M445.4,-123.99C428.35,-112 405.76,-96.11 387.18,-83.04"/>
<polygon fill="black" stroke="black" points="389.15,-80.15 378.96,-77.26 385.13,-85.88 389.15,-80.15"/>
</g>
</g>
</svg>
