<svg width="1054px" height="434px"
 viewBox="0.00 0.00 1053.85 434.00" xmlns="http://www.w3.org/2000/svg" xmlns:xlink="http://www.w3.org/1999/xlink"><g id="graph0" class="graph" transform=" rotate(0) translate(4 430)">
<polygon fill="white" stroke="transparent" points="-4,4 -4,-430 1049.85,-430 1049.85,4 -4,4"/>
<text text-anchor="middle" x="522.92" y="-7.8" font-family="Times New Roman,serif" font-size="14.00">ビジネスルール関連図 [2019.12.1]</text>
<g id="clust2" class="cluster">
<title>cluster_warikan.domain.model</title>
<polygon fill="lemonchiffon" stroke="#eedd82" stroke-width="2" points="260,-31 260,-108 403,-108 403,-31 260,-31"/>
<text text-anchor="middle" x="331.5" y="-92.8" font-family="Times New Roman,serif" font-size="14.00">warikan.domain.model</text>
</g>
<g id="clust1" class="cluster">
<title>cluster_warikan.domain.model.members</title>
<polygon fill="lemonchiffon" stroke="#eedd82" stroke-width="2" points="8,-116 8,-341 408,-341 408,-116 8,-116"/>
<text text-anchor="middle" x="208" y="-325.8" font-family="Times New Roman,serif" font-size="14.00">members</text>
</g>
<g id="clust3" class="cluster">
<title>cluster_warikan.domain.model.party</title>
<polygon fill="lemonchiffon" stroke="#eedd82" stroke-width="2" points="562,-190 562,-418 1028,-418 1028,-190 562,-190"/>
<text text-anchor="middle" x="795" y="-402.8" font-family="Times New Roman,serif" font-size="14.00">party</text>
</g>
<!-- warikan.domain.model.members.Member -->
<g id="node1" class="node">
<title>warikan.domain.model.members.Member</title>
<polygon fill="#eedd82" stroke="black" points="380,-236 312,-236 312,-198 380,-198 380,-236"/>
<text text-anchor="middle" x="346" y="-220.8" font-family="Times New Roman,serif" font-size="14.00">参加者</text>
<text text-anchor="middle" x="346" y="-205.8" font-family="Times New Roman,serif" font-size="14.00">Member</text>
</g>
<!-- warikan.domain.model.members.MemberName -->
<g id="node2" class="node">
<title>warikan.domain.model.members.MemberName</title>
<polygon fill="#eedd82" stroke="black" points="165.5,-162 70.5,-162 70.5,-124 165.5,-124 165.5,-162"/>
<text text-anchor="middle" x="118" y="-146.8" font-family="Times New Roman,serif" font-size="14.00">参加者名</text>
<text text-anchor="middle" x="118" y="-131.8" font-family="Times New Roman,serif" font-size="14.00">MemberName</text>
</g>
<!-- warikan.domain.model.members.Member&#45;&gt;warikan.domain.model.members.MemberName -->
<g id="edge1" class="edge">
<title>warikan.domain.model.members.Member&#45;&gt;warikan.domain.model.members.MemberName</title>
<path fill="none" stroke="black" d="M318.94,-197.82C313.8,-194.9 308.35,-192.13 303,-190 251.76,-169.56 233.23,-176.18 175.77,-162.01"/>
<polygon fill="black" stroke="black" points="176.36,-158.55 165.8,-159.44 174.61,-165.33 176.36,-158.55"/>
</g>
<!-- warikan.domain.model.members.Payment -->
<g id="node4" class="node">
<title>warikan.domain.model.members.Payment</title>
<polygon fill="#eedd82" stroke="black" points="286.5,-162 183.5,-162 183.5,-124 286.5,-124 286.5,-162"/>
<text text-anchor="middle" x="235" y="-146.8" font-family="Times New Roman,serif" font-size="14.00">支払い金額</text>
<text text-anchor="middle" x="235" y="-131.8" font-family="Times New Roman,serif" font-size="14.00">Payment</text>
</g>
<!-- warikan.domain.model.members.Member&#45;&gt;warikan.domain.model.members.Payment -->
<g id="edge2" class="edge">
<title>warikan.domain.model.members.Member&#45;&gt;warikan.domain.model.members.Payment</title>
<path fill="none" stroke="black" d="M317.99,-197.83C303.92,-188.71 286.71,-177.54 271.61,-167.74"/>
<polygon fill="black" stroke="black" points="273.3,-164.67 263,-162.16 269.49,-170.54 273.3,-164.67"/>
</g>
<!-- warikan.domain.model.members.PaymentRatio -->
<g id="node5" class="node">
<title>warikan.domain.model.members.PaymentRatio</title>
<polygon fill="#eedd82" stroke="black" points="399.5,-162 304.5,-162 304.5,-124 399.5,-124 399.5,-162"/>
<text text-anchor="middle" x="352" y="-146.8" font-family="Times New Roman,serif" font-size="14.00">支払区分</text>
<text text-anchor="middle" x="352" y="-131.8" font-family="Times New Roman,serif" font-size="14.00">PaymentRatio</text>
</g>
<!-- warikan.domain.model.members.Member&#45;&gt;warikan.domain.model.members.PaymentRatio -->
<g id="edge3" class="edge">
<title>warikan.domain.model.members.Member&#45;&gt;warikan.domain.model.members.PaymentRatio</title>
<path fill="none" stroke="black" d="M347.51,-197.83C348.16,-190.13 348.92,-180.97 349.63,-172.42"/>
<polygon fill="black" stroke="black" points="353.12,-172.67 350.47,-162.41 346.15,-172.09 353.12,-172.67"/>
</g>
<!-- warikan.domain.model.members.Members -->
<g id="node3" class="node">
<title>warikan.domain.model.members.Members</title>
<polygon fill="#eedd82" stroke="black" points="361.5,-310 206.5,-310 206.5,-272 361.5,-272 361.5,-310"/>
<text text-anchor="middle" x="284" y="-294.8" font-family="Times New Roman,serif" font-size="14.00">メンバーグループ</text>
<text text-anchor="middle" x="284" y="-279.8" font-family="Times New Roman,serif" font-size="14.00">Members</text>
</g>
<!-- warikan.domain.model.members.Members&#45;&gt;warikan.domain.model.members.Member -->
<g id="edge4" class="edge">
<title>warikan.domain.model.members.Members&#45;&gt;warikan.domain.model.members.Member</title>
<path fill="none" stroke="black" d="M299.65,-271.83C306.86,-263.45 315.56,-253.35 323.46,-244.17"/>
<polygon fill="black" stroke="black" points="326.27,-246.27 330.14,-236.41 320.97,-241.71 326.27,-246.27"/>
</g>
<!-- warikan.domain.model.members.Members&#45;&gt;warikan.domain.model.members.Payment -->
<g id="edge5" class="edge">
<title>warikan.domain.model.members.Members&#45;&gt;warikan.domain.model.members.Payment</title>
<path fill="none" stroke="black" d="M206.28,-284.26C139.07,-277.49 49.3,-263.48 27,-236 14.12,-220.13 13.96,-205.74 27,-190 67.71,-140.87 106.18,-174.37 173.27,-162.03"/>
<polygon fill="black" stroke="black" points="174.34,-165.38 183.38,-159.86 172.87,-158.53 174.34,-165.38"/>
</g>
<!-- warikan.domain.model.members.Members&#45;&gt;warikan.domain.model.members.PaymentRatio -->
<g id="edge6" class="edge">
<title>warikan.domain.model.members.Members&#45;&gt;warikan.domain.model.members.PaymentRatio</title>
<path fill="none" stroke="black" d="M345.42,-271.99C362.5,-263.85 379.07,-252.27 389,-236 399.65,-218.55 395.79,-209.28 389,-190 386.52,-182.96 382.45,-176.19 377.9,-170.13"/>
<polygon fill="black" stroke="black" points="380.55,-167.83 371.5,-162.32 375.14,-172.27 380.55,-167.83"/>
</g>
<!-- warikan.domain.model.Money -->
<g id="node7" class="node">
<title>warikan.domain.model.Money</title>
<polygon fill="#eedd82" stroke="black" points="359,-77 303,-77 303,-39 359,-39 359,-77"/>
<text text-anchor="middle" x="331" y="-61.8" font-family="Times New Roman,serif" font-size="14.00">通貨</text>
<text text-anchor="middle" x="331" y="-46.8" font-family="Times New Roman,serif" font-size="14.00">Money</text>
</g>
<!-- warikan.domain.model.members.Payment&#45;&gt;warikan.domain.model.Money -->
<g id="edge7" class="edge">
<title>warikan.domain.model.members.Payment&#45;&gt;warikan.domain.model.Money</title>
<path fill="none" stroke="black" d="M255.83,-123.99C269.32,-112.32 287.09,-96.97 301.96,-84.11"/>
<polygon fill="black" stroke="black" points="304.6,-86.45 309.88,-77.26 300.02,-81.15 304.6,-86.45"/>
</g>
<!-- warikan.domain.model.members.PaymentService -->
<g id="node6" class="node">
<title>warikan.domain.model.members.PaymentService</title>
<polygon fill="#eedd82" stroke="black" points="293.5,-236 36.5,-236 36.5,-198 293.5,-198 293.5,-236"/>
<text text-anchor="middle" x="165" y="-220.8" font-family="Times New Roman,serif" font-size="14.00">支払金額を計算するDomainService</text>
<text text-anchor="middle" x="165" y="-205.8" font-family="Times New Roman,serif" font-size="14.00">PaymentService</text>
</g>
<!-- warikan.domain.model.members.PaymentService&#45;&gt;warikan.domain.model.members.Payment -->
<g id="edge9" class="edge">
<title>warikan.domain.model.members.PaymentService&#45;&gt;warikan.domain.model.members.Payment</title>
<path fill="none" stroke="black" d="M182.66,-197.83C190.97,-189.28 201.03,-178.94 210.09,-169.62"/>
<polygon fill="black" stroke="black" points="212.64,-172.02 217.1,-162.41 207.62,-167.14 212.64,-172.02"/>
</g>
<!-- warikan.domain.model.members.PaymentService&#45;&gt;warikan.domain.model.Money -->
<g id="edge8" class="edge">
<title>warikan.domain.model.members.PaymentService&#45;&gt;warikan.domain.model.Money</title>
<path fill="none" stroke="black" d="M104.42,-198C87.41,-189.84 70.88,-178.26 61,-162 50.38,-144.53 48.12,-131.88 61,-116 89.71,-80.59 224.96,-66.33 292.47,-61.34"/>
<polygon fill="black" stroke="black" points="292.97,-64.81 302.7,-60.62 292.48,-57.83 292.97,-64.81"/>
</g>
<!-- warikan.domain.model.party.LittleRatio -->
<g id="node8" class="node">
<title>warikan.domain.model.party.LittleRatio</title>
<polygon fill="#eedd82" stroke="black" points="908,-236 788,-236 788,-198 908,-198 908,-236"/>
<text text-anchor="middle" x="848" y="-220.8" font-family="Times New Roman,serif" font-size="14.00">弱者控除割合</text>
<text text-anchor="middle" x="848" y="-205.8" font-family="Times New Roman,serif" font-size="14.00">LittleRatio</text>
</g>
<!-- warikan.domain.model.members.PaymentService&#45;&gt;warikan.domain.model.party.LittleRatio -->
<g id="edge10" class="edge">
<title>warikan.domain.model.members.PaymentService&#45;&gt;warikan.domain.model.party.LittleRatio</title>
<path fill="none" stroke="black" d="M226.23,-236C252.37,-243.17 283.4,-250.46 312,-254 413.01,-266.52 670.71,-276.36 770,-254 782.58,-251.17 795.51,-246.06 807.13,-240.53"/>
<polygon fill="black" stroke="black" points="808.76,-243.63 816.15,-236.04 805.63,-237.37 808.76,-243.63"/>
</g>
<!-- warikan.domain.model.party.TotalPayment -->
<g id="node13" class="node">
<title>warikan.domain.model.party.TotalPayment</title>
<polygon fill="#eedd82" stroke="black" points="1020,-236 926,-236 926,-198 1020,-198 1020,-236"/>
<text text-anchor="middle" x="973" y="-220.8" font-family="Times New Roman,serif" font-size="14.00">請求金額</text>
<text text-anchor="middle" x="973" y="-205.8" font-family="Times New Roman,serif" font-size="14.00">TotalPayment</text>
</g>
<!-- warikan.domain.model.members.PaymentService&#45;&gt;warikan.domain.model.party.TotalPayment -->
<g id="edge11" class="edge">
<title>warikan.domain.model.members.PaymentService&#45;&gt;warikan.domain.model.party.TotalPayment</title>
<path fill="none" stroke="black" d="M226.23,-236C252.37,-243.17 283.4,-250.46 312,-254 377.72,-262.14 843.98,-270.94 908,-254 918.37,-251.26 928.81,-246.43 938.21,-241.15"/>
<polygon fill="black" stroke="black" points="940.05,-244.13 946.85,-236.01 936.47,-238.11 940.05,-244.13"/>
</g>
<!-- warikan.domain.model.party.Party -->
<g id="node9" class="node">
<title>warikan.domain.model.party.Party</title>
<polygon fill="#eedd82" stroke="black" points="652,-310 584,-310 584,-272 652,-272 652,-310"/>
<text text-anchor="middle" x="618" y="-294.8" font-family="Times New Roman,serif" font-size="14.00">飲み会</text>
<text text-anchor="middle" x="618" y="-279.8" font-family="Times New Roman,serif" font-size="14.00">Party</text>
</g>
<!-- warikan.domain.model.party.Party&#45;&gt;warikan.domain.model.members.Member -->
<g id="edge12" class="edge">
<title>warikan.domain.model.party.Party&#45;&gt;warikan.domain.model.members.Member</title>
<path fill="none" stroke="black" d="M583.83,-280.95C534.77,-267.97 444.34,-244.03 390.24,-229.71"/>
<polygon fill="black" stroke="black" points="390.81,-226.24 380.25,-227.07 389.02,-233.01 390.81,-226.24"/>
</g>
<!-- warikan.domain.model.party.Party&#45;&gt;warikan.domain.model.members.Members -->
<g id="edge13" class="edge">
<title>warikan.domain.model.party.Party&#45;&gt;warikan.domain.model.members.Members</title>
<path fill="none" stroke="black" d="M583.95,-291C513.32,-291 442.68,-291 372.05,-291"/>
<polygon fill="black" stroke="black" points="371.63,-287.5 361.63,-291 371.63,-294.5 371.63,-287.5"/>
</g>
<!-- warikan.domain.model.party.Party&#45;&gt;warikan.domain.model.members.Payment -->
<g id="edge14" class="edge">
<title>warikan.domain.model.party.Party&#45;&gt;warikan.domain.model.members.Payment</title>
<path fill="none" stroke="black" d="M583.98,-272.16C564.53,-261.83 539.75,-248.44 518,-236 483.73,-216.39 478.86,-204.16 442,-190 383.22,-167.41 362.18,-176.61 296.8,-162"/>
<polygon fill="black" stroke="black" points="297.36,-158.54 286.82,-159.67 295.76,-165.35 297.36,-158.54"/>
</g>
<!-- warikan.domain.model.party.Party&#45;&gt;warikan.domain.model.members.PaymentRatio -->
<g id="edge15" class="edge">
<title>warikan.domain.model.party.Party&#45;&gt;warikan.domain.model.members.PaymentRatio</title>
<path fill="none" stroke="black" d="M598.89,-271.94C587.98,-261.54 574.1,-248.15 562,-236 542.04,-215.95 542.28,-204.52 518,-190 484.97,-170.25 443.2,-158.73 409.82,-152.16"/>
<polygon fill="black" stroke="black" points="410.23,-148.67 399.76,-150.28 408.94,-155.55 410.23,-148.67"/>
</g>
<!-- warikan.domain.model.party.Party&#45;&gt;warikan.domain.model.party.LittleRatio -->
<g id="edge16" class="edge">
<title>warikan.domain.model.party.Party&#45;&gt;warikan.domain.model.party.LittleRatio</title>
<path fill="none" stroke="black" d="M652.43,-279.22C686.15,-268.67 738.43,-252.3 780.46,-239.14"/>
<polygon fill="black" stroke="black" points="781.58,-242.46 790.08,-236.13 779.49,-235.78 781.58,-242.46"/>
</g>
<!-- warikan.domain.model.party.PartyDatetime -->
<g id="node10" class="node">
<title>warikan.domain.model.party.PartyDatetime</title>
<polygon fill="#eedd82" stroke="black" points="665.5,-236 570.5,-236 570.5,-198 665.5,-198 665.5,-236"/>
<text text-anchor="middle" x="618" y="-220.8" font-family="Times New Roman,serif" font-size="14.00">開催日時</text>
<text text-anchor="middle" x="618" y="-205.8" font-family="Times New Roman,serif" font-size="14.00">PartyDatetime</text>
</g>
<!-- warikan.domain.model.party.Party&#45;&gt;warikan.domain.model.party.PartyDatetime -->
<g id="edge17" class="edge">
<title>warikan.domain.model.party.Party&#45;&gt;warikan.domain.model.party.PartyDatetime</title>
<path fill="none" stroke="black" d="M618,-271.83C618,-264.13 618,-254.97 618,-246.42"/>
<polygon fill="black" stroke="black" points="621.5,-246.41 618,-236.41 614.5,-246.41 621.5,-246.41"/>
</g>
<!-- warikan.domain.model.party.PartyName -->
<g id="node11" class="node">
<title>warikan.domain.model.party.PartyName</title>
<polygon fill="#eedd82" stroke="black" points="770,-236 684,-236 684,-198 770,-198 770,-236"/>
<text text-anchor="middle" x="727" y="-220.8" font-family="Times New Roman,serif" font-size="14.00">飲み会名</text>
<text text-anchor="middle" x="727" y="-205.8" font-family="Times New Roman,serif" font-size="14.00">PartyName</text>
</g>
<!-- warikan.domain.model.party.Party&#45;&gt;warikan.domain.model.party.PartyName -->
<g id="edge18" class="edge">
<title>warikan.domain.model.party.Party&#45;&gt;warikan.domain.model.party.PartyName</title>
<path fill="none" stroke="black" d="M645.51,-271.83C659.32,-262.71 676.23,-251.54 691.05,-241.74"/>
<polygon fill="black" stroke="black" points="693.09,-244.59 699.5,-236.16 689.23,-238.75 693.09,-244.59"/>
</g>
<!-- warikan.domain.model.party.Party&#45;&gt;warikan.domain.model.party.TotalPayment -->
<g id="edge19" class="edge">
<title>warikan.domain.model.party.Party&#45;&gt;warikan.domain.model.party.TotalPayment</title>
<path fill="none" stroke="black" d="M652.39,-285.3C706.59,-277.57 815.26,-260.75 916.04,-236.08"/>
<polygon fill="black" stroke="black" points="916.91,-239.47 925.77,-233.67 915.22,-232.68 916.91,-239.47"/>
</g>
<!-- warikan.domain.model.party.PartyService -->
<g id="node12" class="node">
<title>warikan.domain.model.party.PartyService</title>
<polygon fill="#eedd82" stroke="black" points="758,-387 570,-387 570,-349 758,-349 758,-387"/>
<text text-anchor="middle" x="664" y="-371.8" font-family="Times New Roman,serif" font-size="14.00">割り勘するDomainService</text>
<text text-anchor="middle" x="664" y="-356.8" font-family="Times New Roman,serif" font-size="14.00">PartyService</text>
</g>
<!-- warikan.domain.model.party.PartyService&#45;&gt;warikan.domain.model.members.Members -->
<g id="edge21" class="edge">
<title>warikan.domain.model.party.PartyService&#45;&gt;warikan.domain.model.members.Members</title>
<path fill="none" stroke="black" d="M569.99,-362.54C500.16,-358.48 411.18,-351.49 376,-341 356.39,-335.15 336.16,-324.92 319.68,-315.3"/>
<polygon fill="black" stroke="black" points="321.31,-312.2 310.93,-310.06 317.71,-318.2 321.31,-312.2"/>
</g>
<!-- warikan.domain.model.party.PartyService&#45;&gt;warikan.domain.model.members.Payment -->
<g id="edge22" class="edge">
<title>warikan.domain.model.party.PartyService&#45;&gt;warikan.domain.model.members.Payment</title>
<path fill="none" stroke="black" d="M569.66,-357.43C542.29,-353.38 516.64,-347.96 505,-341 432.37,-297.57 458.7,-237.99 389,-190 387.96,-189.28 338.88,-174.68 296.4,-162.11"/>
<polygon fill="black" stroke="black" points="297.21,-158.7 286.62,-159.22 295.22,-165.41 297.21,-158.7"/>
</g>
<!-- warikan.domain.model.party.PartyService&#45;&gt;warikan.domain.model.members.PaymentRatio -->
<g id="edge23" class="edge">
<title>warikan.domain.model.party.PartyService&#45;&gt;warikan.domain.model.members.PaymentRatio</title>
<path fill="none" stroke="black" d="M589.71,-348.88C584.58,-346.55 579.62,-343.94 575,-341 499.54,-293.01 512.62,-244.87 442,-190 430.74,-181.25 417.56,-173.42 404.81,-166.81"/>
<polygon fill="black" stroke="black" points="406.14,-163.56 395.64,-162.21 403.01,-169.82 406.14,-163.56"/>
</g>
<!-- warikan.domain.model.party.PartyService&#45;&gt;warikan.domain.model.members.PaymentService -->
<g id="edge24" class="edge">
<title>warikan.domain.model.party.PartyService&#45;&gt;warikan.domain.model.members.PaymentService</title>
<path fill="none" stroke="black" d="M569.89,-365.69C510.19,-363.27 439.53,-356.96 414,-341 383.36,-321.85 400.09,-293.43 371,-272 351.03,-257.29 327.38,-246.58 303.34,-238.78"/>
<polygon fill="black" stroke="black" points="304.35,-235.43 293.76,-235.83 302.29,-242.12 304.35,-235.43"/>
</g>
<!-- warikan.domain.model.party.PartyService&#45;&gt;warikan.domain.model.Money -->
<g id="edge20" class="edge">
<title>warikan.domain.model.party.PartyService&#45;&gt;warikan.domain.model.Money</title>
<path fill="none" stroke="black" d="M758.01,-356.56C890.32,-338.04 1107.09,-291.41 1029,-190 947.43,-84.07 503.11,-63.6 369.21,-59.82"/>
<polygon fill="black" stroke="black" points="369.12,-56.32 359.03,-59.55 368.93,-63.32 369.12,-56.32"/>
</g>
<!-- warikan.domain.model.party.PartyService&#45;&gt;warikan.domain.model.party.LittleRatio -->
<g id="edge25" class="edge">
<title>warikan.domain.model.party.PartyService&#45;&gt;warikan.domain.model.party.LittleRatio</title>
<path fill="none" stroke="black" d="M686.56,-348.73C719.48,-322.07 780.76,-272.45 817.62,-242.6"/>
<polygon fill="black" stroke="black" points="819.97,-245.2 825.54,-236.19 815.57,-239.76 819.97,-245.2"/>
</g>
<!-- warikan.domain.model.party.PartyService&#45;&gt;warikan.domain.model.party.Party -->
<g id="edge26" class="edge">
<title>warikan.domain.model.party.PartyService&#45;&gt;warikan.domain.model.party.Party</title>
<path fill="none" stroke="black" d="M652.86,-348.84C647.37,-339.88 640.63,-328.89 634.54,-318.97"/>
<polygon fill="black" stroke="black" points="637.4,-316.94 629.19,-310.25 631.44,-320.6 637.4,-316.94"/>
</g>
<!-- warikan.domain.model.party.PartyService&#45;&gt;warikan.domain.model.party.TotalPayment -->
<g id="edge27" class="edge">
<title>warikan.domain.model.party.PartyService&#45;&gt;warikan.domain.model.party.TotalPayment</title>
<path fill="none" stroke="black" d="M722.67,-348.95C729.59,-346.46 736.5,-343.78 743,-341 812.71,-311.16 889.64,-267.72 934.51,-241.25"/>
<polygon fill="black" stroke="black" points="936.5,-244.14 943.32,-236.03 932.93,-238.12 936.5,-244.14"/>
</g>
<!-- warikan.domain.model.party.TotalPayment&#45;&gt;warikan.domain.model.Money -->
<g id="edge28" class="edge">
<title>warikan.domain.model.party.TotalPayment&#45;&gt;warikan.domain.model.Money</title>
<path fill="none" stroke="black" d="M937.01,-197.92C930.45,-195.02 923.6,-192.24 917,-190 715.77,-121.68 463.43,-79.1 368.98,-64.59"/>
<polygon fill="black" stroke="black" points="369.45,-61.12 359.04,-63.07 368.4,-68.04 369.45,-61.12"/>
</g>
</g>
</svg>
