<svg width="846px" height="359px"
 viewBox="0.00 0.00 846.50 359.00" xmlns="http://www.w3.org/2000/svg" xmlns:xlink="http://www.w3.org/1999/xlink"><g id="graph0" class="graph" transform=" rotate(0) translate(4 355)">
<polygon fill="white" stroke="transparent" points="-4,4 -4,-355 842.5,-355 842.5,4 -4,4"/>
<text text-anchor="middle" x="419.25" y="-7.8" font-family="Times New Roman,serif" font-size="14.00">ビジネスルール関連図 [2019.12.1]</text>
<g id="clust2" class="cluster">
<title>cluster_warikan.domain.model</title>
<polygon fill="lemonchiffon" stroke="#eedd82" stroke-width="2" points="584,-31 584,-108 727,-108 727,-31 584,-31"/>
<text text-anchor="middle" x="655.5" y="-92.8" font-family="Times New Roman,serif" font-size="14.00">warikan.domain.model</text>
</g>
<g id="clust1" class="cluster">
<title>cluster_warikan.domain.model.members</title>
<polygon fill="lemonchiffon" stroke="#eedd82" stroke-width="2" points="482,-116 482,-343 828,-343 828,-116 482,-116"/>
<text text-anchor="middle" x="655" y="-327.8" font-family="Times New Roman,serif" font-size="14.00">members</text>
</g>
<g id="clust3" class="cluster">
<title>cluster_warikan.domain.model.party</title>
<polygon fill="lemonchiffon" stroke="#eedd82" stroke-width="2" points="8,-116 8,-266 474,-266 474,-116 8,-116"/>
<text text-anchor="middle" x="241" y="-250.8" font-family="Times New Roman,serif" font-size="14.00">party</text>
</g>
<!-- warikan.domain.model.members.Member -->
<g id="node1" class="node">
<title>warikan.domain.model.members.Member</title>
<polygon fill="#eedd82" stroke="black" points="702,-236 634,-236 634,-198 702,-198 702,-236"/>
<text text-anchor="middle" x="668" y="-220.8" font-family="Times New Roman,serif" font-size="14.00">参加者</text>
<text text-anchor="middle" x="668" y="-205.8" font-family="Times New Roman,serif" font-size="14.00">Member</text>
</g>
<!-- warikan.domain.model.members.MemberName -->
<g id="node2" class="node">
<title>warikan.domain.model.members.MemberName</title>
<polygon fill="#eedd82" stroke="black" points="819.5,-162 724.5,-162 724.5,-124 819.5,-124 819.5,-162"/>
<text text-anchor="middle" x="772" y="-146.8" font-family="Times New Roman,serif" font-size="14.00">参加者名</text>
<text text-anchor="middle" x="772" y="-131.8" font-family="Times New Roman,serif" font-size="14.00">MemberName</text>
</g>
<!-- warikan.domain.model.members.Member&#45;&gt;warikan.domain.model.members.MemberName -->
<g id="edge1" class="edge">
<title>warikan.domain.model.members.Member&#45;&gt;warikan.domain.model.members.MemberName</title>
<path fill="none" stroke="black" d="M694.24,-197.83C707.3,-188.79 723.25,-177.75 737.3,-168.02"/>
<polygon fill="black" stroke="black" points="739.54,-170.73 745.76,-162.16 735.55,-164.98 739.54,-170.73"/>
</g>
<!-- warikan.domain.model.members.Payment -->
<g id="node4" class="node">
<title>warikan.domain.model.members.Payment</title>
<polygon fill="#eedd82" stroke="black" points="706.5,-162 603.5,-162 603.5,-124 706.5,-124 706.5,-162"/>
<text text-anchor="middle" x="655" y="-146.8" font-family="Times New Roman,serif" font-size="14.00">支払い金額</text>
<text text-anchor="middle" x="655" y="-131.8" font-family="Times New Roman,serif" font-size="14.00">Payment</text>
</g>
<!-- warikan.domain.model.members.Member&#45;&gt;warikan.domain.model.members.Payment -->
<g id="edge2" class="edge">
<title>warikan.domain.model.members.Member&#45;&gt;warikan.domain.model.members.Payment</title>
<path fill="none" stroke="black" d="M664.72,-197.83C663.33,-190.13 661.68,-180.97 660.13,-172.42"/>
<polygon fill="black" stroke="black" points="663.55,-171.63 658.32,-162.41 656.66,-172.88 663.55,-171.63"/>
</g>
<!-- warikan.domain.model.members.PaymentRatio -->
<g id="node5" class="node">
<title>warikan.domain.model.members.PaymentRatio</title>
<polygon fill="#eedd82" stroke="black" points="585.5,-162 490.5,-162 490.5,-124 585.5,-124 585.5,-162"/>
<text text-anchor="middle" x="538" y="-146.8" font-family="Times New Roman,serif" font-size="14.00">支払区分</text>
<text text-anchor="middle" x="538" y="-131.8" font-family="Times New Roman,serif" font-size="14.00">PaymentRatio</text>
</g>
<!-- warikan.domain.model.members.Member&#45;&gt;warikan.domain.model.members.PaymentRatio -->
<g id="edge3" class="edge">
<title>warikan.domain.model.members.Member&#45;&gt;warikan.domain.model.members.PaymentRatio</title>
<path fill="none" stroke="black" d="M635.2,-197.83C618.41,-188.54 597.8,-177.12 579.88,-167.2"/>
<polygon fill="black" stroke="black" points="581.24,-163.95 570.79,-162.16 577.85,-170.07 581.24,-163.95"/>
</g>
<!-- warikan.domain.model.members.Members -->
<g id="node3" class="node">
<title>warikan.domain.model.members.Members</title>
<polygon fill="#eedd82" stroke="black" points="695.5,-312 540.5,-312 540.5,-274 695.5,-274 695.5,-312"/>
<text text-anchor="middle" x="618" y="-296.8" font-family="Times New Roman,serif" font-size="14.00">メンバーグループ</text>
<text text-anchor="middle" x="618" y="-281.8" font-family="Times New Roman,serif" font-size="14.00">Members</text>
</g>
<!-- warikan.domain.model.members.Members&#45;&gt;warikan.domain.model.members.Member -->
<g id="edge4" class="edge">
<title>warikan.domain.model.members.Members&#45;&gt;warikan.domain.model.members.Member</title>
<path fill="none" stroke="black" d="M630.36,-273.71C636.29,-264.93 643.52,-254.24 650.04,-244.58"/>
<polygon fill="black" stroke="black" points="653.08,-246.33 655.78,-236.08 647.28,-242.41 653.08,-246.33"/>
</g>
<!-- warikan.domain.model.members.Members&#45;&gt;warikan.domain.model.members.Payment -->
<g id="edge5" class="edge">
<title>warikan.domain.model.members.Members&#45;&gt;warikan.domain.model.members.Payment</title>
<path fill="none" stroke="black" d="M695.82,-279.37C701.64,-275.86 706.85,-271.48 711,-266 729.27,-241.92 722.82,-225.82 711,-198 706.3,-186.94 698.11,-177.05 689.42,-168.85"/>
<polygon fill="black" stroke="black" points="691.55,-166.06 681.72,-162.09 686.92,-171.32 691.55,-166.06"/>
</g>
<!-- warikan.domain.model.members.Members&#45;&gt;warikan.domain.model.members.PaymentRatio -->
<g id="edge6" class="edge">
<title>warikan.domain.model.members.Members&#45;&gt;warikan.domain.model.members.PaymentRatio</title>
<path fill="none" stroke="black" d="M540.37,-282.33C522.34,-278.45 506.73,-273.14 501,-266 482.09,-242.43 492.06,-226.87 501,-198 504.04,-188.17 509.56,-178.54 515.43,-170.19"/>
<polygon fill="black" stroke="black" points="518.37,-172.11 521.57,-162.01 512.77,-167.91 518.37,-172.11"/>
</g>
<!-- warikan.domain.model.Money -->
<g id="node7" class="node">
<title>warikan.domain.model.Money</title>
<polygon fill="#eedd82" stroke="black" points="683,-77 627,-77 627,-39 683,-39 683,-77"/>
<text text-anchor="middle" x="655" y="-61.8" font-family="Times New Roman,serif" font-size="14.00">通貨</text>
<text text-anchor="middle" x="655" y="-46.8" font-family="Times New Roman,serif" font-size="14.00">Money</text>
</g>
<!-- warikan.domain.model.members.Payment&#45;&gt;warikan.domain.model.Money -->
<g id="edge7" class="edge">
<title>warikan.domain.model.members.Payment&#45;&gt;warikan.domain.model.Money</title>
<path fill="none" stroke="black" d="M655,-123.99C655,-113.3 655,-99.5 655,-87.37"/>
<polygon fill="black" stroke="black" points="658.5,-87.26 655,-77.26 651.5,-87.26 658.5,-87.26"/>
</g>
<!-- warikan.domain.model.members.PaymentService -->
<g id="node6" class="node">
<title>warikan.domain.model.members.PaymentService</title>
<polygon fill="#eedd82" stroke="black" points="616,-235 510,-235 510,-199 616,-199 616,-235"/>
<text text-anchor="middle" x="563" y="-213.3" font-family="Times New Roman,serif" font-size="14.00">PaymentService</text>
</g>
<!-- warikan.domain.model.members.PaymentService&#45;&gt;warikan.domain.model.members.Payment -->
<g id="edge9" class="edge">
<title>warikan.domain.model.members.PaymentService&#45;&gt;warikan.domain.model.members.Payment</title>
<path fill="none" stroke="black" d="M584.8,-198.94C596.4,-189.86 610.86,-178.55 623.64,-168.54"/>
<polygon fill="black" stroke="black" points="626.03,-171.12 631.75,-162.2 621.71,-165.61 626.03,-171.12"/>
</g>
<!-- warikan.domain.model.members.PaymentService&#45;&gt;warikan.domain.model.Money -->
<g id="edge8" class="edge">
<title>warikan.domain.model.members.PaymentService&#45;&gt;warikan.domain.model.Money</title>
<path fill="none" stroke="black" d="M616,-200.2C619.04,-199.43 622.05,-198.69 625,-198 669.84,-187.57 799.41,-197.27 829,-162 842.14,-146.34 841,-132.55 829,-116 798.11,-73.38 734.38,-62.05 693.22,-59.36"/>
<polygon fill="black" stroke="black" points="693.19,-55.85 683.02,-58.84 692.83,-62.84 693.19,-55.85"/>
</g>
<!-- warikan.domain.model.party.LittleRatio -->
<g id="node8" class="node">
<title>warikan.domain.model.party.LittleRatio</title>
<polygon fill="#eedd82" stroke="black" points="354,-162 234,-162 234,-124 354,-124 354,-162"/>
<text text-anchor="middle" x="294" y="-146.8" font-family="Times New Roman,serif" font-size="14.00">弱者控除割合</text>
<text text-anchor="middle" x="294" y="-131.8" font-family="Times New Roman,serif" font-size="14.00">LittleRatio</text>
</g>
<!-- warikan.domain.model.members.PaymentService&#45;&gt;warikan.domain.model.party.LittleRatio -->
<g id="edge10" class="edge">
<title>warikan.domain.model.members.PaymentService&#45;&gt;warikan.domain.model.party.LittleRatio</title>
<path fill="none" stroke="black" d="M509.85,-201.78C468.06,-190.59 409.47,-174.91 363.88,-162.7"/>
<polygon fill="black" stroke="black" points="364.63,-159.28 354.07,-160.08 362.82,-166.04 364.63,-159.28"/>
</g>
<!-- warikan.domain.model.party.TotalPayment -->
<g id="node12" class="node">
<title>warikan.domain.model.party.TotalPayment</title>
<polygon fill="#eedd82" stroke="black" points="466,-162 372,-162 372,-124 466,-124 466,-162"/>
<text text-anchor="middle" x="419" y="-146.8" font-family="Times New Roman,serif" font-size="14.00">請求金額</text>
<text text-anchor="middle" x="419" y="-131.8" font-family="Times New Roman,serif" font-size="14.00">TotalPayment</text>
</g>
<!-- warikan.domain.model.members.PaymentService&#45;&gt;warikan.domain.model.party.TotalPayment -->
<g id="edge11" class="edge">
<title>warikan.domain.model.members.PaymentService&#45;&gt;warikan.domain.model.party.TotalPayment</title>
<path fill="none" stroke="black" d="M528.87,-198.94C509.53,-189.27 485.09,-177.04 464.17,-166.59"/>
<polygon fill="black" stroke="black" points="465.65,-163.41 455.14,-162.07 462.52,-169.67 465.65,-163.41"/>
</g>
<!-- warikan.domain.model.party.Party -->
<g id="node9" class="node">
<title>warikan.domain.model.party.Party</title>
<polygon fill="#eedd82" stroke="black" points="456,-235 402,-235 402,-199 456,-199 456,-235"/>
<text text-anchor="middle" x="429" y="-213.3" font-family="Times New Roman,serif" font-size="14.00">Party</text>
</g>
<!-- warikan.domain.model.party.Party&#45;&gt;warikan.domain.model.members.Member -->
<g id="edge12" class="edge">
<title>warikan.domain.model.party.Party&#45;&gt;warikan.domain.model.members.Member</title>
<path fill="none" stroke="black" d="M440.71,-235.1C450.95,-248.75 467.25,-265.81 487,-270 501.02,-272.98 601.98,-272.98 616,-270 630.71,-266.88 642.82,-255.59 651.63,-244.23"/>
<polygon fill="black" stroke="black" points="654.5,-246.24 657.46,-236.06 648.8,-242.17 654.5,-246.24"/>
</g>
<!-- warikan.domain.model.party.Party&#45;&gt;warikan.domain.model.members.Members -->
<g id="edge13" class="edge">
<title>warikan.domain.model.party.Party&#45;&gt;warikan.domain.model.members.Members</title>
<path fill="none" stroke="black" d="M442.13,-235.3C451.08,-245.83 463.84,-258.64 478,-266 494.1,-274.37 512.48,-280.08 530.51,-283.96"/>
<polygon fill="black" stroke="black" points="529.98,-287.42 540.47,-285.94 531.34,-280.56 529.98,-287.42"/>
</g>
<!-- warikan.domain.model.party.Party&#45;&gt;warikan.domain.model.members.Payment -->
<g id="edge14" class="edge">
<title>warikan.domain.model.party.Party&#45;&gt;warikan.domain.model.members.Payment</title>
<path fill="none" stroke="black" d="M456.12,-205.73C463.21,-203.13 470.87,-200.4 478,-198 489.3,-194.2 547.01,-176.65 593.51,-162.58"/>
<polygon fill="black" stroke="black" points="594.68,-165.88 603.24,-159.63 592.65,-159.18 594.68,-165.88"/>
</g>
<!-- warikan.domain.model.party.Party&#45;&gt;warikan.domain.model.members.PaymentRatio -->
<g id="edge15" class="edge">
<title>warikan.domain.model.party.Party&#45;&gt;warikan.domain.model.members.PaymentRatio</title>
<path fill="none" stroke="black" d="M454.83,-198.94C468.83,-189.69 486.36,-178.11 501.71,-167.97"/>
<polygon fill="black" stroke="black" points="504.03,-170.63 510.45,-162.2 500.18,-164.79 504.03,-170.63"/>
</g>
<!-- warikan.domain.model.party.Party&#45;&gt;warikan.domain.model.party.LittleRatio -->
<g id="edge16" class="edge">
<title>warikan.domain.model.party.Party&#45;&gt;warikan.domain.model.party.LittleRatio</title>
<path fill="none" stroke="black" d="M401.68,-201.43C383.07,-191.51 358.06,-178.17 336.83,-166.84"/>
<polygon fill="black" stroke="black" points="338.46,-163.75 327.99,-162.13 335.17,-169.92 338.46,-163.75"/>
</g>
<!-- warikan.domain.model.party.PartyDatetime -->
<g id="node10" class="node">
<title>warikan.domain.model.party.PartyDatetime</title>
<polygon fill="#eedd82" stroke="black" points="215.5,-162 120.5,-162 120.5,-124 215.5,-124 215.5,-162"/>
<text text-anchor="middle" x="168" y="-146.8" font-family="Times New Roman,serif" font-size="14.00">開催日時</text>
<text text-anchor="middle" x="168" y="-131.8" font-family="Times New Roman,serif" font-size="14.00">PartyDatetime</text>
</g>
<!-- warikan.domain.model.party.Party&#45;&gt;warikan.domain.model.party.PartyDatetime -->
<g id="edge17" class="edge">
<title>warikan.domain.model.party.Party&#45;&gt;warikan.domain.model.party.PartyDatetime</title>
<path fill="none" stroke="black" d="M401.83,-209.24C364.39,-199.83 294.62,-181.97 225.31,-162.02"/>
<polygon fill="black" stroke="black" points="226.11,-158.61 215.53,-159.2 224.17,-165.34 226.11,-158.61"/>
</g>
<!-- warikan.domain.model.party.PartyName -->
<g id="node11" class="node">
<title>warikan.domain.model.party.PartyName</title>
<polygon fill="#eedd82" stroke="black" points="102,-162 16,-162 16,-124 102,-124 102,-162"/>
<text text-anchor="middle" x="59" y="-146.8" font-family="Times New Roman,serif" font-size="14.00">飲み会名</text>
<text text-anchor="middle" x="59" y="-131.8" font-family="Times New Roman,serif" font-size="14.00">PartyName</text>
</g>
<!-- warikan.domain.model.party.Party&#45;&gt;warikan.domain.model.party.PartyName -->
<g id="edge18" class="edge">
<title>warikan.domain.model.party.Party&#45;&gt;warikan.domain.model.party.PartyName</title>
<path fill="none" stroke="black" d="M401.98,-212.87C346.88,-206.16 217.8,-188.8 112,-162 111.9,-161.97 111.8,-161.95 111.7,-161.92"/>
<polygon fill="black" stroke="black" points="112.79,-158.59 102.22,-159.3 110.92,-165.34 112.79,-158.59"/>
</g>
<!-- warikan.domain.model.party.Party&#45;&gt;warikan.domain.model.party.TotalPayment -->
<g id="edge19" class="edge">
<title>warikan.domain.model.party.Party&#45;&gt;warikan.domain.model.party.TotalPayment</title>
<path fill="none" stroke="black" d="M426.63,-198.94C425.53,-190.99 424.18,-181.31 422.93,-172.31"/>
<polygon fill="black" stroke="black" points="426.37,-171.62 421.53,-162.2 419.44,-172.59 426.37,-171.62"/>
</g>
<!-- warikan.domain.model.party.TotalPayment&#45;&gt;warikan.domain.model.Money -->
<g id="edge20" class="edge">
<title>warikan.domain.model.party.TotalPayment&#45;&gt;warikan.domain.model.Money</title>
<path fill="none" stroke="black" d="M458.44,-123.95C464.93,-121.17 471.62,-118.43 478,-116 525.3,-98.02 581.05,-80.68 617.15,-69.95"/>
<polygon fill="black" stroke="black" points="618.19,-73.29 626.79,-67.1 616.21,-66.58 618.19,-73.29"/>
</g>
</g>
</svg>
