<svg width="327px" height="382px"
 viewBox="0.00 0.00 327.00 382.00" xmlns="http://www.w3.org/2000/svg" xmlns:xlink="http://www.w3.org/1999/xlink"><g id="graph0" class="graph" transform=" rotate(0) translate(4 378)">
<title>JIG</title>
<polygon fill="white" stroke="transparent" points="-4,4 -4,-378 323,-378 323,4 -4,4"/>
<text text-anchor="middle" x="159.5" y="-7.8" font-family="Times New Roman,serif" font-size="14.00">区分使用図 [2019.12.1]</text>
<g id="clust1" class="cluster">
<title>cluster_legend</title>
<polygon fill="none" stroke="black" points="45.5,-31 45.5,-160 142.5,-160 142.5,-31 45.5,-31"/>
<text text-anchor="middle" x="94" y="-144.8" font-family="Times New Roman,serif" font-size="14.00">凡例</text>
</g>
<!-- enum -->
<g id="node1" class="node">
<title>enum</title>
<polygon fill="#eedd82" stroke="black" points="121,-129 67,-129 67,-93 121,-93 121,-129"/>
<text text-anchor="middle" x="94" y="-107.3" font-family="Times New Roman,serif" font-size="14.00">enum</text>
</g>
<!-- enum以外 -->
<g id="node2" class="node">
<title>enum以外</title>
<polygon fill="lightyellow" stroke="black" points="134.5,-75 53.5,-75 53.5,-39 134.5,-39 134.5,-75"/>
<text text-anchor="middle" x="94" y="-53.3" font-family="Times New Roman,serif" font-size="14.00">enum以外</text>
</g>
<!-- warikan.domain.model.members.PaymentRatio -->
<g id="node3" class="node">
<title>warikan.domain.model.members.PaymentRatio</title>
<polygon fill="#eedd82" stroke="black" points="319,-290 224,-290 224,-252 319,-252 319,-290"/>
<text text-anchor="middle" x="271.5" y="-274.8" font-family="Times New Roman,serif" font-size="14.00">支払区分</text>
<text text-anchor="middle" x="271.5" y="-259.8" font-family="Times New Roman,serif" font-size="14.00">PaymentRatio</text>
</g>
<!-- warikan.domain.model.members.Member -->
<g id="node4" class="node">
<title>warikan.domain.model.members.Member</title>
<polygon fill="lightyellow" stroke="black" points="128,-374 60,-374 60,-336 128,-336 128,-374"/>
<text text-anchor="middle" x="94" y="-358.8" font-family="Times New Roman,serif" font-size="14.00">参加者</text>
<text text-anchor="middle" x="94" y="-343.8" font-family="Times New Roman,serif" font-size="14.00">Member</text>
</g>
<!-- warikan.domain.model.members.Member&#45;&gt;warikan.domain.model.members.PaymentRatio -->
<g id="edge1" class="edge">
<title>warikan.domain.model.members.Member&#45;&gt;warikan.domain.model.members.PaymentRatio</title>
<path fill="none" stroke="black" d="M128.19,-347.63C146.35,-342.95 168.97,-336.06 188,-327 205.51,-318.66 223.49,-306.9 238.18,-296.31"/>
<polygon fill="black" stroke="black" points="240.44,-298.99 246.42,-290.24 236.29,-293.35 240.44,-298.99"/>
</g>
<!-- warikan.domain.model.members.Members -->
<g id="node5" class="node">
<title>warikan.domain.model.members.Members</title>
<polygon fill="lightyellow" stroke="black" points="171.5,-318 16.5,-318 16.5,-280 171.5,-280 171.5,-318"/>
<text text-anchor="middle" x="94" y="-302.8" font-family="Times New Roman,serif" font-size="14.00">メンバーグループ</text>
<text text-anchor="middle" x="94" y="-287.8" font-family="Times New Roman,serif" font-size="14.00">Members</text>
</g>
<!-- warikan.domain.model.members.Members&#45;&gt;warikan.domain.model.members.PaymentRatio -->
<g id="edge2" class="edge">
<title>warikan.domain.model.members.Members&#45;&gt;warikan.domain.model.members.PaymentRatio</title>
<path fill="none" stroke="black" d="M171.72,-286.76C185.83,-284.51 200.33,-282.19 213.73,-280.06"/>
<polygon fill="black" stroke="black" points="214.4,-283.49 223.73,-278.46 213.3,-276.58 214.4,-283.49"/>
</g>
<!-- warikan.domain.model.party.Party -->
<g id="node6" class="node">
<title>warikan.domain.model.party.Party</title>
<polygon fill="lightyellow" stroke="black" points="128,-262 60,-262 60,-224 128,-224 128,-262"/>
<text text-anchor="middle" x="94" y="-246.8" font-family="Times New Roman,serif" font-size="14.00">飲み会</text>
<text text-anchor="middle" x="94" y="-231.8" font-family="Times New Roman,serif" font-size="14.00">Party</text>
</g>
<!-- warikan.domain.model.party.Party&#45;&gt;warikan.domain.model.members.PaymentRatio -->
<g id="edge3" class="edge">
<title>warikan.domain.model.party.Party&#45;&gt;warikan.domain.model.members.PaymentRatio</title>
<path fill="none" stroke="black" d="M128.01,-248.27C152.06,-252.1 185.25,-257.4 213.55,-261.91"/>
<polygon fill="black" stroke="black" points="213.3,-265.42 223.73,-263.54 214.4,-258.51 213.3,-265.42"/>
</g>
<!-- warikan.domain.model.party.PartyService -->
<g id="node7" class="node">
<title>warikan.domain.model.party.PartyService</title>
<polygon fill="lightyellow" stroke="black" points="188,-206 0,-206 0,-168 188,-168 188,-206"/>
<text text-anchor="middle" x="94" y="-190.8" font-family="Times New Roman,serif" font-size="14.00">割り勘するDomainService</text>
<text text-anchor="middle" x="94" y="-175.8" font-family="Times New Roman,serif" font-size="14.00">PartyService</text>
</g>
<!-- warikan.domain.model.party.PartyService&#45;&gt;warikan.domain.model.members.PaymentRatio -->
<g id="edge4" class="edge">
<title>warikan.domain.model.party.PartyService&#45;&gt;warikan.domain.model.members.PaymentRatio</title>
<path fill="none" stroke="black" d="M166.43,-206.06C173.83,-208.76 181.15,-211.74 188,-215 205.51,-223.34 223.49,-235.1 238.18,-245.69"/>
<polygon fill="black" stroke="black" points="236.29,-248.65 246.42,-251.76 240.44,-243.01 236.29,-248.65"/>
</g>
</g>
</svg>
