<svg width="294px" height="378px"
 viewBox="0.00 0.00 294.00 378.00" xmlns="http://www.w3.org/2000/svg" xmlns:xlink="http://www.w3.org/1999/xlink"><g id="graph0" class="graph" transform=" rotate(0) translate(4 374)">
<title>JIG</title>
<polygon fill="white" stroke="transparent" points="-4,4 -4,-374 290,-374 290,4 -4,4"/>
<text text-anchor="middle" x="143" y="-7.8" font-family="Times New Roman,serif" font-size="14.00">区分使用図 [2019.12.1]</text>
<g id="clust1" class="cluster">
<title>cluster_legend</title>
<polygon fill="none" stroke="black" points="29,-31 29,-160 126,-160 126,-31 29,-31"/>
<text text-anchor="middle" x="77.5" y="-144.8" font-family="Times New Roman,serif" font-size="14.00">凡例</text>
</g>
<!-- enum -->
<g id="node1" class="node">
<title>enum</title>
<polygon fill="#eedd82" stroke="black" points="104.5,-129 50.5,-129 50.5,-93 104.5,-93 104.5,-129"/>
<text text-anchor="middle" x="77.5" y="-107.3" font-family="Times New Roman,serif" font-size="14.00">enum</text>
</g>
<!-- enum以外 -->
<g id="node2" class="node">
<title>enum以外</title>
<polygon fill="lightyellow" stroke="black" points="118,-75 37,-75 37,-39 118,-39 118,-75"/>
<text text-anchor="middle" x="77.5" y="-53.3" font-family="Times New Roman,serif" font-size="14.00">enum以外</text>
</g>
<!-- warikan.domain.model.members.PaymentRatio -->
<g id="node3" class="node">
<title>warikan.domain.model.members.PaymentRatio</title>
<polygon fill="#eedd82" stroke="black" points="286,-286 191,-286 191,-248 286,-248 286,-286"/>
<text text-anchor="middle" x="238.5" y="-270.8" font-family="Times New Roman,serif" font-size="14.00">支払区分</text>
<text text-anchor="middle" x="238.5" y="-255.8" font-family="Times New Roman,serif" font-size="14.00">PaymentRatio</text>
</g>
<!-- warikan.domain.model.members.Member -->
<g id="node4" class="node">
<title>warikan.domain.model.members.Member</title>
<polygon fill="lightyellow" stroke="black" points="111.5,-370 43.5,-370 43.5,-332 111.5,-332 111.5,-370"/>
<text text-anchor="middle" x="77.5" y="-354.8" font-family="Times New Roman,serif" font-size="14.00">参加者</text>
<text text-anchor="middle" x="77.5" y="-339.8" font-family="Times New Roman,serif" font-size="14.00">Member</text>
</g>
<!-- warikan.domain.model.members.Member&#45;&gt;warikan.domain.model.members.PaymentRatio -->
<g id="edge1" class="edge">
<title>warikan.domain.model.members.Member&#45;&gt;warikan.domain.model.members.PaymentRatio</title>
<path fill="none" stroke="black" d="M111.63,-340.86C125.38,-336.15 141.28,-330.03 155,-323 172.13,-314.22 189.94,-302.51 204.61,-292.06"/>
<polygon fill="black" stroke="black" points="206.81,-294.79 212.86,-286.09 202.7,-289.12 206.81,-294.79"/>
</g>
<!-- warikan.domain.model.members.Members -->
<g id="node5" class="node">
<title>warikan.domain.model.members.Members</title>
<polygon fill="lightyellow" stroke="black" points="155,-314 0,-314 0,-276 155,-276 155,-314"/>
<text text-anchor="middle" x="77.5" y="-298.8" font-family="Times New Roman,serif" font-size="14.00">メンバーグループ</text>
<text text-anchor="middle" x="77.5" y="-283.8" font-family="Times New Roman,serif" font-size="14.00">Members</text>
</g>
<!-- warikan.domain.model.members.Members&#45;&gt;warikan.domain.model.members.PaymentRatio -->
<g id="edge2" class="edge">
<title>warikan.domain.model.members.Members&#45;&gt;warikan.domain.model.members.PaymentRatio</title>
<path fill="none" stroke="black" d="M155.21,-281.49C163.9,-279.96 172.64,-278.42 181.01,-276.95"/>
<polygon fill="black" stroke="black" points="181.76,-280.37 191,-275.19 180.54,-273.48 181.76,-280.37"/>
</g>
<!-- warikan.domain.model.party.Party -->
<g id="node6" class="node">
<title>warikan.domain.model.party.Party</title>
<polygon fill="lightyellow" stroke="black" points="104.5,-258 50.5,-258 50.5,-222 104.5,-222 104.5,-258"/>
<text text-anchor="middle" x="77.5" y="-236.3" font-family="Times New Roman,serif" font-size="14.00">Party</text>
</g>
<!-- warikan.domain.model.party.Party&#45;&gt;warikan.domain.model.members.PaymentRatio -->
<g id="edge3" class="edge">
<title>warikan.domain.model.party.Party&#45;&gt;warikan.domain.model.members.PaymentRatio</title>
<path fill="none" stroke="black" d="M104.76,-244.46C125.39,-247.96 154.88,-252.97 180.83,-257.38"/>
<polygon fill="black" stroke="black" points="180.5,-260.87 190.95,-259.09 181.67,-253.97 180.5,-260.87"/>
</g>
<!-- warikan.domain.service.party.PartyService -->
<g id="node7" class="node">
<title>warikan.domain.service.party.PartyService</title>
<polygon fill="lightyellow" stroke="black" points="121,-204 34,-204 34,-168 121,-168 121,-204"/>
<text text-anchor="middle" x="77.5" y="-182.3" font-family="Times New Roman,serif" font-size="14.00">PartyService</text>
</g>
<!-- warikan.domain.service.party.PartyService&#45;&gt;warikan.domain.model.members.PaymentRatio -->
<g id="edge4" class="edge">
<title>warikan.domain.service.party.PartyService&#45;&gt;warikan.domain.model.members.PaymentRatio</title>
<path fill="none" stroke="black" d="M121.34,-199.08C132.51,-203.04 144.4,-207.75 155,-213 171.52,-221.17 188.73,-232.02 203.14,-241.85"/>
<polygon fill="black" stroke="black" points="201.5,-244.97 211.71,-247.8 205.5,-239.23 201.5,-244.97"/>
</g>
</g>
</svg>
